<?xml version="1.0" encoding="utf-8"?>
<!-- Generator: Adobe Illustrator 16.0.0, SVG Export Plug-In . SVG Version: 6.00 Build 0)  -->
<!DOCTYPE svg PUBLIC "-//W3C//DTD SVG 1.1//EN" "http://www.w3.org/Graphics/SVG/1.1/DTD/svg11.dtd">
<svg version="1.1" id="Layer_1" xmlns="http://www.w3.org/2000/svg" xmlns:xlink="http://www.w3.org/1999/xlink" x="0px" y="0px"
	 width="512px" height="512px" viewBox="0 0 512 512" enable-background="new 0 0 512 512" xml:space="preserve">
<rect fill="#010101" width="512" height="512.003"/>
<path fill="#FFFFFF" d="M364.138,364.434c-9.841,11.577-21.724,20.889-33.588,30.22c-38.13,29.97-81.303,49.839-127.5,63.683
	c-45.857,13.727-92.764,20.811-140.507,22.943c-14.528,0.651-29.067,1.054-43.605,1.017C7.111,482.257,4.544,479.837,4.75,468.05
	c1.022-60.534,7.982-120.185,26.317-178.204c11.875-37.585,27.718-73.19,51.184-105.118c2.711-3.705,5.299-7.53,7.636-11.471
	c1.799-3.019,4.219-4.031,7.598-4.008c12.258,0.078,24.507-0.023,36.755-0.053c0.984,0.029,1.964,0.101,2.947,0.101
	c48.333,0,96.676,0,145.009,0c1.358,0,2.879-0.346,3.628,1.315c0.759,1.671-0.873,2.194-1.623,2.999
	c-42.918,46.347-85.88,92.645-128.789,139.004c-4.08,4.396-8.415,8.564-11.726,13.652c-9.652,14.841,1.651,35.21,17.429,37.418
	c6.445,0.901,12.877,0.479,19.313,0.498c60.15,0.04,120.298,0.058,180.444,0.098C361.968,364.281,363.057,364.376,364.138,364.434"
	/>
<path fill="none" stroke="#FFFFFF" stroke-width="1.5" stroke-miterlimit="10" d="M166.356,135.1
	c10.314-10.545,22.434-18.801,34.505-27.109c42.473-29.244,89.4-48.381,139.191-60.966c41.253-10.43,83.197-16.107,125.681-18.009
	c11.131-0.499,22.286-0.557,33.434-0.657c6.154-0.058,7.873,1.483,8.235,7.607c0.837,14.207,0.04,28.41-0.636,42.603
	c-1.301,27.104-4.22,54.025-8.852,80.765c-9.108,52.648-26.283,102.565-51.203,149.809c-3.163,6.01-6.951,11.633-10.909,17.143
	c-1.79,2.496-3.932,3.668-7.167,3.648c-11.912-0.115-23.826,0.058-35.738,0.115c-1.882-0.728-3.824-0.788-5.812-0.788
	c-45.07,0.078-90.149,0.135-135.218,0.193c-0.984,0-1.978,0.039-2.948-0.02c-0.739-0.059-1.674,0.116-2.097-0.615
	c-0.5-0.883,0.456-1.342,0.897-1.88c0.96-1.189,1.993-2.324,3.024-3.456c31.625-34.204,63.253-68.392,94.869-102.599
	c13.427-14.539,26.835-29.096,40.232-43.663c3.993-4.344,6.135-9.514,6.423-15.413c0.716-14.586-10.71-26.255-25.785-26.255
	c-63.893-0.018-127.797,0-191.691-0.042C171.991,135.512,169.14,135.915,166.356,135.1z"/>
</svg>
