<?xml version="1.0" encoding="utf-8"?>
<!-- Generator: Adobe Illustrator 16.0.0, SVG Export Plug-In . SVG Version: 6.00 Build 0)  -->
<!DOCTYPE svg PUBLIC "-//W3C//DTD SVG 1.1//EN" "http://www.w3.org/Graphics/SVG/1.1/DTD/svg11.dtd">
<svg version="1.1" id="Layer_1" xmlns="http://www.w3.org/2000/svg" xmlns:xlink="http://www.w3.org/1999/xlink" x="0px" y="0px"
	 width="260px" height="260px" viewBox="0 0 260 260" enable-background="new 0 0 260 260" xml:space="preserve">
<rect fill="#010101" width="260" height="260"/>
<path fill="#FFFFFF" d="M184.913,185.063c-4.997,5.879-11.031,10.609-17.057,15.347c-19.36,15.219-41.286,25.309-64.746,32.339
	c-23.286,6.972-47.106,10.567-71.351,11.65c-7.377,0.331-14.76,0.535-22.142,0.516c-6.005-0.019-7.31-1.246-7.206-7.233
	c0.52-30.74,4.054-61.031,13.364-90.494c6.03-19.087,14.076-37.167,25.992-53.379c1.377-1.882,2.691-3.825,3.877-5.826
	c0.914-1.534,2.143-2.046,3.859-2.034c6.224,0.039,12.444-0.012,18.665-0.028c0.499,0.016,0.997,0.051,1.496,0.051
	c24.544,0,49.093,0,73.637,0c0.689,0,1.462-0.175,1.842,0.668c0.387,0.848-0.443,1.114-0.823,1.523
	c-21.794,23.537-43.61,47.045-65.4,70.587c-2.071,2.232-4.273,4.349-5.955,6.932c-4.9,7.538,0.838,17.882,8.85,19.002
	c3.272,0.459,6.539,0.243,9.807,0.254c30.545,0.021,61.089,0.029,91.633,0.05C183.812,184.986,184.364,185.035,184.913,185.063"/>
<path fill="none" stroke="#FFFFFF" stroke-width="1.5" stroke-miterlimit="10" d="M84.478,68.604
	C89.716,63.25,95.87,59.057,102,54.838c21.568-14.85,45.398-24.567,70.683-30.959c20.949-5.296,42.249-8.179,63.822-9.146
	c5.653-0.252,11.317-0.282,16.978-0.333c3.125-0.031,3.997,0.752,4.182,3.862c0.427,7.214,0.021,14.426-0.323,21.634
	c-0.659,13.763-2.142,27.434-4.494,41.014c-4.625,26.735-13.346,52.083-26.001,76.075c-1.606,3.051-3.529,5.906-5.539,8.705
	c-0.909,1.267-1.997,1.862-3.641,1.853c-6.048-0.059-12.1,0.029-18.147,0.059c-0.956-0.369-1.943-0.4-2.951-0.4
	c-22.888,0.04-45.779,0.068-68.666,0.098c-0.5,0-1.003,0.02-1.496-0.01c-0.377-0.029-0.851,0.059-1.066-0.313
	c-0.254-0.447,0.231-0.682,0.457-0.955c0.486-0.604,1.011-1.181,1.536-1.754c16.059-17.37,32.12-34.731,48.175-52.101
	c6.818-7.382,13.629-14.775,20.431-22.172c2.028-2.206,3.116-4.831,3.262-7.827c0.363-7.409-5.438-13.333-13.093-13.333
	c-32.445-0.009-64.898,0-97.343-0.023C87.34,68.813,85.892,69.02,84.478,68.604z"/>
</svg>
