<?xml version="1.0" encoding="utf-8"?>
<!-- Generator: Adobe Illustrator 16.0.0, SVG Export Plug-In . SVG Version: 6.00 Build 0)  -->
<!DOCTYPE svg PUBLIC "-//W3C//DTD SVG 1.1//EN" "http://www.w3.org/Graphics/SVG/1.1/DTD/svg11.dtd">
<svg version="1.1" id="Layer_1" xmlns="http://www.w3.org/2000/svg" xmlns:xlink="http://www.w3.org/1999/xlink" x="0px" y="0px"
	 width="32px" height="32px" viewBox="0 0 32 32" enable-background="new 0 0 32 32" xml:space="preserve">
<rect fill="#010101" width="32" height="32"/>
<path fill="#FFFFFF" d="M22.759,22.777c-0.615,0.724-1.357,1.306-2.099,1.889c-2.385,1.873-5.083,3.114-7.97,3.979
	c-2.866,0.859-5.798,1.302-8.782,1.436c-0.908,0.04-1.816,0.065-2.725,0.064c-0.739-0.003-0.899-0.154-0.887-0.893
	c0.064-3.782,0.499-7.511,1.645-11.136c0.742-2.35,1.732-4.575,3.199-6.571c0.17-0.231,0.331-0.47,0.477-0.717
	c0.113-0.189,0.264-0.252,0.475-0.25c0.767,0.005,1.532-0.002,2.297-0.003c0.062,0.001,0.123,0.006,0.184,0.006
	c3.021,0,6.042,0,9.063,0c0.085,0,0.18-0.021,0.227,0.082c0.048,0.104-0.055,0.137-0.102,0.188c-2.682,2.897-5.367,5.791-8.05,8.688
	c-0.254,0.275-0.525,0.535-0.733,0.854c-0.603,0.927,0.104,2.2,1.09,2.338c0.403,0.057,0.805,0.029,1.207,0.031
	c3.76,0.002,7.52,0.004,11.278,0.007C22.622,22.769,22.691,22.773,22.759,22.777"/>
<path fill="none" stroke="#FFFFFF" stroke-width="1.5" stroke-miterlimit="10" d="M10.397,8.443
	c0.645-0.659,1.402-1.175,2.157-1.695c2.655-1.827,5.587-3.023,8.698-3.81c2.58-0.651,5.201-1.006,7.856-1.125
	c0.695-0.031,1.394-0.036,2.09-0.042c0.384-0.004,0.492,0.092,0.516,0.476c0.051,0.888,0.001,1.776-0.04,2.663
	c-0.082,1.694-0.265,3.376-0.555,5.048c-0.568,3.29-1.643,6.41-3.199,9.363c-0.199,0.375-0.434,0.727-0.683,1.071
	c-0.11,0.156-0.245,0.229-0.447,0.229c-0.745-0.008-1.489,0.003-2.234,0.006c-0.117-0.045-0.239-0.049-0.362-0.049
	c-2.817,0.005-5.634,0.009-8.452,0.014c-0.061,0-0.124,0.002-0.183-0.003c-0.046-0.003-0.105,0.009-0.131-0.038
	c-0.032-0.054,0.028-0.083,0.055-0.117c0.061-0.074,0.125-0.146,0.189-0.216c1.977-2.137,3.954-4.275,5.929-6.413
	c0.84-0.909,1.677-1.818,2.516-2.729c0.249-0.271,0.383-0.595,0.4-0.963c0.045-0.911-0.669-1.64-1.611-1.64
	c-3.993-0.001-7.987,0-11.98-0.003C10.75,8.47,10.571,8.495,10.397,8.443z"/>
</svg>
