<?xml version="1.0" encoding="utf-8"?>
<!-- Generator: Adobe Illustrator 16.0.0, SVG Export Plug-In . SVG Version: 6.00 Build 0)  -->
<!DOCTYPE svg PUBLIC "-//W3C//DTD SVG 1.1//EN" "http://www.w3.org/Graphics/SVG/1.1/DTD/svg11.dtd">
<svg version="1.1" id="Layer_1" xmlns="http://www.w3.org/2000/svg" xmlns:xlink="http://www.w3.org/1999/xlink" x="0px" y="0px"
	 width="192px" height="192px" viewBox="0 0 192 192" enable-background="new 0 0 192 192" xml:space="preserve">
<rect fill="#010101" width="192" height="192"/>
<path fill="#FFFFFF" d="M136.55,136.661c-3.688,4.343-8.145,7.833-12.596,11.332c-14.298,11.239-30.487,18.69-47.811,23.882
	c-17.196,5.147-34.786,7.806-52.689,8.604c-5.449,0.246-10.901,0.395-16.353,0.382c-4.434-0.013-5.397-0.921-5.319-5.341
	c0.383-22.703,2.992-45.071,9.869-66.827c4.452-14.095,10.394-27.446,19.192-39.421c1.018-1.388,1.989-2.822,2.864-4.3
	c0.675-1.132,1.583-1.513,2.85-1.504c4.597,0.029,9.19-0.009,13.782-0.019c0.37,0.01,0.737,0.039,1.107,0.039
	c18.125,0,36.251,0,54.379,0c0.507,0,1.077-0.129,1.356,0.493c0.286,0.627-0.324,0.824-0.607,1.125
	c-16.092,17.38-32.205,34.743-48.295,52.125c-1.528,1.649-3.155,3.212-4.397,5.121c-3.619,5.564,0.619,13.202,6.536,14.031
	c2.418,0.338,4.83,0.18,7.244,0.188c22.554,0.015,45.11,0.021,67.666,0.035C135.737,136.604,136.145,136.641,136.55,136.661"/>
<path fill="none" stroke="#FFFFFF" stroke-width="1.5" stroke-miterlimit="10" d="M62.383,50.662
	c3.868-3.955,8.413-7.049,12.939-10.166c15.926-10.967,33.525-18.143,52.196-22.863c15.47-3.911,31.199-6.04,47.129-6.752
	c4.176-0.188,8.358-0.208,12.539-0.247c2.308-0.021,2.952,0.556,3.088,2.853c0.313,5.328,0.015,10.654-0.237,15.977
	c-0.489,10.164-1.583,20.26-3.319,30.287c-3.415,19.742-9.857,38.461-19.202,56.177c-1.186,2.253-2.607,4.363-4.092,6.429
	c-0.671,0.936-1.474,1.375-2.687,1.369c-4.467-0.044-8.935,0.021-13.403,0.042c-0.704-0.271-1.433-0.296-2.178-0.296
	c-16.901,0.03-33.807,0.052-50.707,0.072c-0.368,0-0.74,0.015-1.105-0.006c-0.276-0.023-0.627,0.043-0.787-0.231
	c-0.188-0.331,0.171-0.504,0.337-0.704c0.359-0.447,0.747-0.872,1.134-1.297c11.858-12.827,23.721-25.646,35.574-38.475
	c5.037-5.452,10.064-10.91,15.088-16.374c1.497-1.628,2.301-3.568,2.408-5.778c0.269-5.471-4.016-9.847-9.67-9.847
	c-23.959-0.007-47.922,0-71.883-0.015C64.497,50.817,63.427,50.967,62.383,50.662z"/>
</svg>
